Control Set_states
version=1
nRows=17
nColumns=17
inDegrees=yes

# SIMM Motion File Header:
name Control Set_states
datacolumns 17
datarows 17
otherdata 1
range 0.20359470 0.24676929
endheader
time	/jointset/r_shoulder/r_shoulder_elev/value	/jointset/r_shoulder/r_shoulder_elev/speed	/jointset/r_elbow/r_elbow_flex/value	/jointset/r_elbow/r_elbow_flex/speed	/forceset/TRIlong/activation	/forceset/TRIlong/fiber_length	/forceset/TRIlat/activation	/forceset/TRIlat/fiber_length	/forceset/TRImed/activation	/forceset/TRImed/fiber_length	/forceset/BIClong/activation	/forceset/BIClong/fiber_length	/forceset/BICshort/activation	/forceset/BICshort/fiber_length	/forceset/BRA/activation	/forceset/BRA/fiber_length
      0.20359470	     -6.22010435	    -18.38576983	     24.95871918	    117.51758008	     -0.00077073	      0.14255788	     -0.00077073	      0.08031377	     -0.00077073	      0.07531795	     -0.00077073	      0.14413300	     -0.00077073	      0.14231373	     -0.00077073	      0.08752503
      0.20590252	     -6.26154763	    -17.52809465	     25.22756113	    115.45885869	     -0.00106786	      0.14264081	     -0.00106786	      0.08042468	     -0.00106786	      0.07543070	     -0.00106786	      0.14404522	     -0.00106786	      0.14221629	     -0.00106786	      0.08746323
      0.20785987	     -6.29514154	    -16.79728383	     25.45182800	    113.69141818	     -0.00131987	      0.14271060	     -0.00131987	      0.08051724	     -0.00131987	      0.07552082	     -0.00131987	      0.14397114	     -0.00131987	      0.14213424	     -0.00131987	      0.08741171
      0.20981722	     -6.32729987	    -16.06100541	     25.67260998	    111.89734567	     -0.00157188	      0.14277987	     -0.00157188	      0.08060837	     -0.00157188	      0.07561236	     -0.00157188	      0.14389746	     -0.00157188	      0.14205278	     -0.00157188	      0.08736102
      0.21245585	     -6.36836328	    -15.06294916	     25.96463892	    109.44580905	     -0.00191160	      0.14287241	     -0.00191160	      0.08072895	     -0.00191160	      0.07573168	     -0.00191160	      0.14379884	     -0.00191160	      0.14194396	     -0.00191160	      0.08729401
      0.21509448	     -6.40678414	    -14.05725727	     26.25014687	    106.95233169	     -0.00225133	      0.14296395	     -0.00225133	      0.08084688	     -0.00225133	      0.07585077	     -0.00225133	      0.14370104	     -0.00225133	      0.14183635	     -0.00225133	      0.08722853
      0.21730471	     -6.43691981	    -13.21157974	     26.48420445	    104.83898886	     -0.00253589	      0.14303983	     -0.00253589	      0.08094359	     -0.00253589	      0.07594544	     -0.00253589	      0.14361983	     -0.00253589	      0.14174721	     -0.00253589	      0.08717488
      0.21951494	     -6.46518125	    -12.36106882	     26.71356084	    102.69759092	     -0.00282046	      0.14311497	     -0.00282046	      0.08103839	     -0.00282046	      0.07604056	     -0.00282046	      0.14353933	     -0.00282046	      0.14165904	     -0.00282046	      0.08712233
      0.22242818	     -6.49955374	    -11.23576250	     27.00859172	     99.84127485	     -0.00319554	      0.14321284	     -0.00319554	      0.08116039	     -0.00319554	      0.07616134	     -0.00319554	      0.14343443	     -0.00319554	      0.14154436	     -0.00319554	      0.08705475
      0.22534143	     -6.53064033	    -10.10460382	     27.29524371	     96.94344431	     -0.00357062	      0.14330936	     -0.00357062	      0.08127897	     -0.00357062	      0.07628071	     -0.00357062	      0.14333089	     -0.00357062	      0.14143154	     -0.00357062	      0.08698912
      0.22792265	     -6.55542655	     -9.10024114	     27.54213283	     94.34927363	     -0.00390295	      0.14339371	     -0.00390295	      0.08138116	     -0.00390295	      0.07638114	     -0.00390295	      0.14324041	     -0.00390295	      0.14133320	     -0.00390295	      0.08693261
      0.23050386	     -6.57761613	     -8.09241161	     27.78228885	     91.72570993	     -0.00423528	      0.14347694	     -0.00423528	      0.08148061	     -0.00423528	      0.07648085	     -0.00423528	      0.14315119	     -0.00423528	      0.14123648	     -0.00423528	      0.08687765
      0.23375695	     -6.60187285	     -6.82060083	     28.07525829	     88.38703098	     -0.00465412	      0.14358021	     -0.00465412	      0.08160202	     -0.00465412	      0.07660108	     -0.00465412	      0.14304068	     -0.00465412	      0.14111697	     -0.00465412	      0.08681061
      0.23701003	     -6.62198905	     -5.54642162	     28.35730755	     85.01079986	     -0.00507295	      0.14368161	     -0.00507295	      0.08171898	     -0.00507295	      0.07671841	     -0.00507295	      0.14293235	     -0.00507295	      0.14100026	     -0.00507295	      0.08674606
      0.24026312	     -6.63796026	     -4.27313738	     28.62832404	     81.60666931	     -0.00549179	      0.14378112	     -0.00549179	      0.08183149	     -0.00549179	      0.07682941	     -0.00549179	      0.14282639	     -0.00549179	      0.14088645	     -0.00549179	      0.08668403
      0.24351620	     -6.64979004	     -2.99996517	     28.88821898	     78.17236712	     -0.00591062	      0.14387869	     -0.00591062	      0.08193948	     -0.00591062	      0.07693766	     -0.00591062	      0.14272289	     -0.00591062	      0.14077569	     -0.00591062	      0.08662452
      0.24676929	     -6.65748256	     -1.73005612	     29.13690554	     74.71728609	     -0.00632946	      0.14397430	     -0.00632946	      0.08204294	     -0.00632946	      0.07704013	     -0.00632946	      0.14262197	     -0.00632946	      0.14066806	     -0.00632946	      0.08656755
